<svg version="1.1" xmlns="http://www.w3.org/2000/svg" xmlns:xlink="http://www.w3.org/1999/xlink" x="0px" y="0px" viewBox="0 0 16.4 17" enable-background="new 0 0 16.4 17" xml:space="preserve"><path d="M5.4,16.2c-2,0-3.5-1.3-3.5-2.8c0-1.5,1.8-2.8,3.8-2.7c0.5,0,0.9,0.1,1.3,0.2c1.1,0.8,1.9,1.2,2.1,2.1c0,0.2,0.1,0.4,0.1,0.5C9.2,15,8.2,16.2,5.4,16.2 M5.9,7.2C4.6,7.1,3.3,5.6,3,3.9c-0.2-1.8,0.7-3.1,2-3.1c1.4,0,2.6,1.5,2.9,3.3C8.2,5.8,7.3,7.2,5.9,7.2 M8.7,9.8C8.3,9.5,7.3,8.6,7.3,8.2c0-0.6,0.2-0.8,1-1.5C9.2,6,9.8,5,9.8,3.9c0-1.3-0.6-2.6-1.7-3h1.7L11,0H5.7C3.4,0,1.1,1.8,1.1,3.9c0,2.1,1.6,3.8,4,3.8c0.2,0,0.3,0,0.5,0C5.5,8,5.4,8.3,5.4,8.7c0,0.6,0.3,1.1,0.7,1.5c-0.3,0-0.6,0-0.9,0C2.3,10.1,0,12,0,13.9C0,15.8,2.5,17,5.4,17c3.3,0,5.2-1.9,5.2-3.8C10.6,11.7,10.1,10.8,8.7,9.8 M16.4,7.3h-2.1V5.3h-1.7v2.1h-2.1V9h2.1V11h1.7V9h2.1V7.3z"/></svg>