<?xml version="1.0" encoding="utf-8"?>
<!-- Generator: Adobe Illustrator 19.1.0, SVG Export Plug-In . SVG Version: 6.00 Build 0)  -->
<svg version="1.1" id="Camada_1" xmlns="http://www.w3.org/2000/svg" xmlns:xlink="http://www.w3.org/1999/xlink" x="0px" y="0px"
	 viewBox="0 0 17 17" style="enable-background:new 0 0 17 17;" xml:space="preserve">
<path d="M17,4.6c-0.1,1.7-1.2,3.9-3.5,6.8c-2.3,3-4.3,4.5-5.9,4.5c-1,0-1.8-0.9-2.5-2.7c-0.5-1.7-0.9-3.4-1.4-5
	C3.3,6.2,2.7,5.3,2.1,5.3C2,5.3,1.6,5.6,0.8,6.1L0,5.1c0.8-0.7,1.7-1.5,2.5-2.2c1.1-1,2-1.5,2.5-1.5c1.3-0.1,2.1,0.8,2.4,2.7
	C7.8,6.1,8,7.4,8.1,7.9c0.4,1.7,0.8,2.6,1.3,2.6c0.4,0,0.9-0.6,1.6-1.7c0.7-1.1,1.1-2,1.1-2.6c0.1-1-0.3-1.4-1.1-1.4
	c-0.4,0-0.8,0.1-1.3,0.3c0.8-2.7,2.4-4,4.8-4C16.3,1.2,17.1,2.3,17,4.6z"/>
</svg>
